<svg width="38" height="30" viewBox="0 0 38 30" fill="none" xmlns="http://www.w3.org/2000/svg">
<path d="M38 12.1391V13.1946C38 14.0691 37.2911 14.778 36.4167 14.778H35.8889L34.1662 26.8369C33.9433 28.3969 32.6072 29.5557 31.0314 29.5557H6.96865C5.39277 29.5557 4.0567 28.3969 3.83378 26.8369L2.11111 14.778H1.58333C0.708872 14.778 0 14.0691 0 13.1946V12.1391C0 11.2646 0.708872 10.5557 1.58333 10.5557H6.02597L13.0705 0.869635C13.7563 -0.0732401 15.0765 -0.281778 16.0195 0.404003C16.9624 1.08978 17.1709 2.41009 16.4851 3.35303L11.2467 10.5557H26.7533L21.5149 3.35296C20.8291 2.41009 21.0376 1.08972 21.9806 0.403937C22.9234 -0.281844 24.2438 -0.073372 24.9296 0.869569L31.974 10.5557H36.4167C37.2911 10.5557 38 11.2646 38 12.1391ZM20.5833 23.7502V16.3613C20.5833 15.4868 19.8745 14.778 19 14.778C18.1255 14.778 17.4167 15.4868 17.4167 16.3613V23.7502C17.4167 24.6246 18.1255 25.3335 19 25.3335C19.8745 25.3335 20.5833 24.6246 20.5833 23.7502ZM27.9722 23.7502V16.3613C27.9722 15.4868 27.2634 14.778 26.3889 14.778C25.5144 14.778 24.8056 15.4868 24.8056 16.3613V23.7502C24.8056 24.6246 25.5144 25.3335 26.3889 25.3335C27.2634 25.3335 27.9722 24.6246 27.9722 23.7502ZM13.1944 23.7502V16.3613C13.1944 15.4868 12.4856 14.778 11.6111 14.778C10.7366 14.778 10.0278 15.4868 10.0278 16.3613V23.7502C10.0278 24.6246 10.7366 25.3335 11.6111 25.3335C12.4856 25.3335 13.1944 24.6246 13.1944 23.7502Z" fill="#232323"/>
</svg>
