<svg width="150" height="150" viewBox="0 0 150 150" fill="none" xmlns="http://www.w3.org/2000/svg">
<path d="M56.25 93.75L93.75 56.25" stroke="#232323" stroke-width="2" stroke-linecap="round" stroke-linejoin="round"/>
<path d="M59.375 62.5C61.1009 62.5 62.5 61.1009 62.5 59.375C62.5 57.6491 61.1009 56.25 59.375 56.25C57.6491 56.25 56.25 57.6491 56.25 59.375C56.25 61.1009 57.6491 62.5 59.375 62.5Z" fill="#232323" stroke="#232323" stroke-width="2" stroke-linecap="round" stroke-linejoin="round"/>
<path d="M90.6249 93.75C92.3508 93.75 93.7499 92.3509 93.7499 90.625C93.7499 88.8991 92.3508 87.5 90.6249 87.5C88.8991 87.5 87.4999 88.8991 87.4999 90.625C87.4999 92.3509 88.8991 93.75 90.6249 93.75Z" fill="#232323" stroke="#232323" stroke-width="2" stroke-linecap="round" stroke-linejoin="round"/>
<path d="M31.2498 44.9999C31.2498 41.3531 32.6985 37.8558 35.2771 35.2771C37.8557 32.6985 41.3531 31.2499 44.9998 31.2499H51.2498C54.8804 31.2478 58.3629 29.8099 60.9373 27.2499L65.3123 22.8749C66.5901 21.5899 68.1093 20.5701 69.7826 19.8743C71.4558 19.1784 73.2502 18.8202 75.0623 18.8202C76.8745 18.8202 78.6688 19.1784 80.3421 19.8743C82.0153 20.5701 83.5345 21.5899 84.8123 22.8749L89.1873 27.2499C91.7618 29.8099 95.2442 31.2478 98.8748 31.2499H105.125C108.772 31.2499 112.269 32.6985 114.848 35.2771C117.426 37.8558 118.875 41.3531 118.875 44.9999V51.2499C118.877 54.8805 120.315 58.3629 122.875 60.9374L127.25 65.3124C128.535 66.5902 129.555 68.1094 130.25 69.7826C130.946 71.4559 131.304 73.2502 131.304 75.0624C131.304 76.8745 130.946 78.6688 130.25 80.3421C129.555 82.0153 128.535 83.5346 127.25 84.8124L122.875 89.1874C120.315 91.7618 118.877 95.2442 118.875 98.8749V105.125C118.875 108.772 117.426 112.269 114.848 114.848C112.269 117.426 108.772 118.875 105.125 118.875H98.8748C95.2442 118.877 91.7618 120.315 89.1873 122.875L84.8123 127.25C83.5345 128.535 82.0153 129.555 80.3421 130.25C78.6688 130.946 76.8745 131.304 75.0623 131.304C73.2502 131.304 71.4558 130.946 69.7826 130.25C68.1093 129.555 66.5901 128.535 65.3123 127.25L60.9373 122.875C58.3629 120.315 54.8804 118.877 51.2498 118.875H44.9998C41.3531 118.875 37.8557 117.426 35.2771 114.848C32.6985 112.269 31.2498 108.772 31.2498 105.125V98.8749C31.2478 95.2442 29.8098 91.7618 27.2498 89.1874L22.8748 84.8124C21.5898 83.5346 20.5701 82.0153 19.8743 80.3421C19.1784 78.6688 18.8202 76.8745 18.8202 75.0624C18.8202 73.2502 19.1784 71.4559 19.8743 69.7826C20.5701 68.1094 21.5898 66.5902 22.8748 65.3124L27.2498 60.9374C29.8098 58.3629 31.2478 54.8805 31.2498 51.2499V44.9999" stroke="#232323" stroke-width="2" stroke-linecap="round" stroke-linejoin="round"/>
</svg>
