<svg width="145" height="145" viewBox="0 0 145 145" fill="none" xmlns="http://www.w3.org/2000/svg">
<path d="M44.0324 55.9043C41.5742 42.4238 39.082 28.5695 39.0027 14.8059C38.9914 13.0953 38.4023 9.37969 40.1242 8.4168C41.4043 7.6918 43.4887 7.49922 44.9387 7.52188C46.1281 7.5332 46.0941 8.07695 46.4566 9.05117C48.8016 15.2816 48.9941 22.1805 49.9004 28.7168C50.8746 35.6496 51.7129 42.5938 52.8117 49.5039C54.2164 58.2605 55.5531 67.1078 55.4285 75.9437C55.4172 76.918 55.4512 78.1641 54.7715 78.6965C53.4574 79.7273 51.0898 79.2855 49.5832 78.6965C47.5895 77.9035 47.227 74.0066 46.6719 71.8543C46.0375 69.3621 45.5391 67.0398 45.1879 64.491C44.984 62.9277 44.5082 61.3984 44.3043 59.8352C44.157 58.4645 44.293 57.275 44.0324 55.9043Z" fill="#E9F8FB"/>
<path d="M44.7348 7.52187H44.9387C46.1281 7.5332 46.0941 8.07695 46.4566 9.05117C48.8016 15.2816 48.9941 22.1805 49.9004 28.7168C50.8746 35.6496 51.7129 42.5938 52.8117 49.5039C54.2164 58.2605 55.5531 67.1078 55.4285 75.9437C55.4172 76.918 55.4512 78.1641 54.7715 78.6965C54.1938 79.1496 53.4348 79.3195 52.6192 79.3195C51.5656 79.3195 50.4441 79.0363 49.5945 78.6965C47.6008 77.9035 47.2383 74.0066 46.6832 71.8543C46.0488 69.3621 45.5504 67.0398 45.1992 64.491C44.9953 62.9277 44.5195 61.3984 44.3156 59.8352C44.157 58.4645 44.293 57.2863 44.0438 55.9156C41.5856 42.4352 39.0934 28.5809 39.0141 14.8172C39.0027 13.1066 38.4137 9.39102 40.1356 8.42812C41.3477 7.72578 43.2961 7.52187 44.7348 7.52187ZM44.7348 0.702343C42.5371 0.702343 39.3766 1.0082 36.7711 2.48086C31.6621 5.34687 32.002 11.4754 32.1492 14.0922C32.1606 14.3754 32.1832 14.6359 32.1832 14.8512C32.2738 29.4758 34.9586 44.1684 37.3262 57.1277C37.3715 57.3996 37.3941 57.7961 37.4055 58.3059C37.4281 58.9402 37.4508 59.7332 37.5527 60.6395C37.6887 61.7836 37.9152 62.7691 38.1078 63.6527C38.2438 64.2871 38.3797 64.8875 38.4363 65.3746C38.8102 68.0367 39.3086 70.5516 40.0789 73.5535C40.1695 73.9047 40.2488 74.2898 40.3281 74.6977C40.9852 77.8242 42.0727 83.0578 47.0797 85.0402C48.1332 85.4594 50.2289 86.1391 52.6192 86.1391C55.0547 86.1391 57.2637 85.4254 58.9969 84.066C62.1801 81.5738 62.2254 77.8469 62.2481 76.2496V76.0684C62.3727 66.9152 61.1039 58.1359 59.552 48.4391C58.827 43.8738 58.2039 39.1613 57.5809 34.5961C57.2863 32.3191 56.9805 30.0535 56.6633 27.7766C56.4367 26.168 56.2555 24.548 56.0856 22.9168C55.4965 17.5926 54.8961 12.0984 52.857 6.66094L52.8004 6.49101C51.1578 1.51797 47.227 0.736327 45.0406 0.713671H44.7348V0.702343Z" fill="#232323"/>
<path d="M65.0348 55.2926C64.2305 41.6082 63.4488 27.55 65.0234 13.8883C65.216 12.1891 65.0801 8.42813 66.9039 7.68047C68.2633 7.11406 70.359 7.18203 71.7977 7.37461C72.9871 7.5332 72.8738 8.06563 73.1117 9.07383C74.6863 15.5535 74.0406 22.4184 74.1539 29.0113C74.2672 36.0121 74.2672 43.0129 74.5277 50.0023C74.8449 58.8609 75.1055 67.8102 73.916 76.5555C73.7801 77.5297 73.6555 78.7645 72.9418 79.2176C71.5031 80.0785 69.2035 79.3535 67.7875 78.5832C65.907 77.5637 66.0203 73.6555 65.7258 71.4465C65.3973 68.8977 65.182 66.5301 65.148 63.9586C65.1367 62.3727 64.8422 60.8094 64.8422 59.2234C64.8535 57.8301 65.1141 56.6859 65.0348 55.2926Z" fill="#E9F8FB"/>
<path d="M69.7813 7.23867C70.5063 7.23867 71.1973 7.29531 71.809 7.37461C72.9984 7.5332 72.8852 8.06562 73.1231 9.07383C74.6977 15.5535 74.052 22.4184 74.1652 29.0113C74.2785 36.0121 74.2785 43.0129 74.5391 50.0023C74.8563 58.8609 75.1168 67.8102 73.9274 76.5555C73.7914 77.5297 73.6668 78.7644 72.9531 79.2176C72.4774 79.4895 71.9336 79.6141 71.3559 79.6141C70.1324 79.6141 68.7617 79.1043 67.7988 78.5832C65.9184 77.5637 66.0316 73.6555 65.7371 71.4465C65.4086 68.8977 65.1934 66.5301 65.1594 63.9586C65.148 62.3727 64.8535 60.8094 64.8535 59.2234C64.8535 57.8414 65.1254 56.6859 65.0461 55.2926C64.2418 41.6082 63.4602 27.55 65.0348 13.8883C65.2273 12.1891 65.0914 8.42812 66.9152 7.68047C67.7082 7.35195 68.7617 7.23867 69.7813 7.23867ZM69.7813 0.41914C67.6969 0.41914 65.8617 0.736327 64.3098 1.3707C58.8836 3.61367 58.4758 9.74219 58.3059 12.3703C58.2945 12.6422 58.2832 12.9027 58.2492 13.118C56.5613 27.6859 57.4449 42.5711 58.2266 55.7004C58.2379 55.9609 58.2039 56.3687 58.1586 56.8785C58.0906 57.5016 58.0227 58.2945 58.0227 59.2008C58.0227 60.3562 58.1133 61.3645 58.2039 62.2594C58.2605 62.9051 58.3172 63.5168 58.3285 64.0039C58.3625 66.6434 58.5551 69.2035 58.9629 72.3188C59.0082 72.6473 59.0309 73.0324 59.0648 73.4516C59.3027 76.4309 59.7672 81.993 64.525 84.5644C65.7938 85.2555 68.3652 86.4223 71.3332 86.4223C73.2024 86.4223 74.9356 85.9578 76.4422 85.0516C79.9199 82.9332 80.4184 79.2629 80.6336 77.6883L80.6563 77.507C81.8797 68.5238 81.6871 59.6312 81.3246 49.7531C81.1547 45.1312 81.0981 40.3734 81.0527 35.7742C81.0301 33.4746 80.9961 31.1863 80.9621 28.8867C80.9395 27.2895 80.9508 25.6582 80.9734 24.027C81.0414 18.6687 81.0981 13.118 79.7387 7.45391L79.6934 7.26133C78.6625 2.14101 74.8676 0.883593 72.6926 0.60039C71.7297 0.487109 70.7215 0.41914 69.7813 0.41914Z" fill="#232323"/>
<path d="M89.7301 32.1379C86.4336 45.4484 83.1145 59.1215 82.1742 72.8512C82.0609 74.5617 81.2453 78.232 82.8992 79.2969C84.134 80.0898 86.1957 80.4184 87.6457 80.4863C88.8578 80.543 88.8352 79.9992 89.2656 79.059C91.9844 72.9758 92.6074 66.1109 93.9102 59.6312C95.2922 52.7777 96.5609 45.8902 98.0902 39.0594C100.016 30.4047 101.896 21.648 102.327 12.8461C102.372 11.8719 102.474 10.6258 101.84 10.048C100.594 8.93789 98.1922 9.23242 96.6629 9.73086C94.6238 10.3879 94.0234 14.2621 93.3438 16.3805C92.5508 18.8273 91.9164 21.1156 91.418 23.6531C91.1121 25.2051 90.5457 26.6891 90.2512 28.2523C89.9906 29.6004 90.0586 30.7785 89.7301 32.1379Z" fill="#E9F8FB"/>
<path d="M99.3476 9.28906C100.288 9.28906 101.205 9.49297 101.84 10.048C102.474 10.6145 102.372 11.8605 102.327 12.8461C101.908 21.648 100.016 30.416 98.0902 39.0594C96.5609 45.9016 95.2922 52.7777 93.9102 59.6312C92.6074 66.1109 91.9844 72.9645 89.2656 79.059C88.8691 79.9539 88.8578 80.4977 87.8156 80.4977H87.6457C86.1957 80.4297 84.134 80.1012 82.8992 79.3082C81.2453 78.232 82.0496 74.573 82.1742 72.8625C83.1145 59.1328 86.4336 45.4598 89.7301 32.1492C90.0586 30.7898 90.0019 29.6117 90.2512 28.2523C90.5457 26.7004 91.1121 25.2051 91.418 23.6531C91.9164 21.127 92.5508 18.8273 93.3437 16.3805C94.0234 14.2621 94.6238 10.3992 96.6629 9.73086C97.4219 9.48164 98.4074 9.28906 99.3476 9.28906ZM99.3476 2.46953C97.3652 2.46953 95.632 2.9 94.5445 3.2625C89.4129 4.92774 87.9516 10.3086 87.1699 13.2086C87.068 13.6051 86.966 13.9789 86.8641 14.2961C85.9352 17.1508 85.2555 19.7109 84.7457 22.3277C84.6551 22.8148 84.4738 23.4039 84.3039 24.0156C84.0434 24.8879 83.7602 25.8848 83.5563 26.9949C83.3863 27.9125 83.3184 28.7168 83.2504 29.3625C83.2051 29.8723 83.1711 30.2688 83.1031 30.5293C79.9539 43.2734 76.3742 57.7395 75.3887 72.398C75.3773 72.568 75.3434 72.8172 75.298 73.1004C74.9922 75.7172 74.2672 81.823 79.1949 85.0289C81.9477 86.7961 85.4707 87.2152 87.3172 87.3172C87.4984 87.3172 87.657 87.3285 87.8156 87.3285C89.866 87.3285 93.5703 86.6375 95.4168 82.027L95.4848 81.8457C97.8637 76.5328 98.8152 71.0613 99.7215 65.7824C100.005 64.1738 100.265 62.5766 100.594 61.0133C101.047 58.759 101.489 56.5047 101.93 54.2504C102.825 49.7418 103.732 45.0859 104.74 40.5773C106.892 30.9711 108.693 22.2711 109.135 13.2086L109.146 12.9934C109.214 11.4074 109.396 7.70313 106.405 5.00703C105.091 3.81758 102.837 2.46953 99.3476 2.46953Z" fill="#232323"/>
<path d="M106.439 60.3223C110.325 47.1703 114.357 33.6898 120.486 21.3648C121.245 19.8356 122.4 16.2559 124.36 16.1652C125.833 16.1086 127.781 16.8676 129.073 17.5473C130.126 18.1023 129.854 18.5668 129.741 19.5977C129.016 26.2246 126.082 32.4664 123.941 38.7082C121.687 45.3238 119.296 51.9055 117.155 58.5777C114.459 67.0172 111.661 75.536 107.572 83.3524C107.119 84.2246 106.575 85.3574 105.748 85.516C104.094 85.8445 102.191 84.3832 101.115 83.1824C99.6875 81.5738 101.126 77.9375 101.602 75.7625C102.157 73.259 102.757 70.9594 103.607 68.5238C104.128 67.0285 104.389 65.4539 104.921 63.9699C105.397 62.6445 106.054 61.659 106.439 60.3223Z" fill="#E9F8FB"/>
<path d="M124.53 16.1652C125.98 16.1652 127.827 16.9016 129.073 17.5473C130.126 18.1023 129.854 18.5668 129.741 19.5977C129.016 26.2246 126.082 32.4664 123.941 38.7082C121.687 45.3238 119.296 51.9055 117.155 58.5777C114.459 67.0172 111.661 75.5359 107.572 83.3523C107.119 84.2246 106.575 85.3574 105.748 85.516C105.589 85.55 105.42 85.5613 105.261 85.5613C103.743 85.5613 102.078 84.2586 101.115 83.1711C99.6875 81.5625 101.126 77.9262 101.602 75.7512C102.157 73.2477 102.757 70.948 103.607 68.5125C104.128 67.0172 104.389 65.4426 104.921 63.9586C105.386 62.6559 106.043 61.6703 106.428 60.3223C110.313 47.1703 114.346 33.6898 120.475 21.3648C121.234 19.8355 122.389 16.2559 124.349 16.1652H124.53ZM124.53 9.3457H124.088C118.198 9.61758 115.728 15.259 114.686 17.6719C114.573 17.9324 114.471 18.159 114.38 18.3516C107.866 31.4695 103.63 45.777 99.9141 58.3852C99.8348 58.6457 99.6648 59.0082 99.4609 59.4613C99.1891 60.0391 98.8492 60.7754 98.532 61.6477C98.1469 62.7125 97.8863 63.7207 97.6598 64.6043C97.5012 65.2273 97.3539 65.8164 97.1953 66.2809C96.3231 68.7844 95.632 71.2652 94.9637 74.3012C94.8957 74.6184 94.7938 74.9922 94.6805 75.4C93.8535 78.4926 92.4488 83.6582 96.0285 87.691C97.2859 89.107 100.684 92.3695 105.272 92.3695C105.895 92.3695 106.496 92.3016 107.096 92.1883C111.072 91.384 112.794 88.0988 113.53 86.6828L113.621 86.5129C117.835 78.4359 120.656 70.0191 123.658 60.6395C125.051 56.3121 126.592 51.8941 128.076 47.6348C128.857 45.3918 129.639 43.1488 130.398 40.8945C130.919 39.3992 131.474 37.8926 132.041 36.3746C133.921 31.3336 135.881 26.134 136.515 20.3227L136.549 20.1527C137.331 14.9758 134.182 12.5063 132.245 11.4867C130.319 10.5125 127.453 9.3457 124.53 9.3457Z" fill="#232323"/>
<path d="M32.7496 48.473C39.3652 60.4922 46.0941 72.8625 50.5234 85.8785C51.0898 87.4984 52.8117 90.8402 51.4863 92.2902C50.4895 93.3777 48.5863 94.2273 47.193 94.6691C46.0488 95.0316 45.9242 94.4992 45.2785 93.6949C41.0871 88.5293 38.7195 82.0496 35.7855 76.125C32.6703 69.8605 29.6684 63.5281 26.4512 57.3203C22.3617 49.4586 18.2723 41.4836 15.5988 33.0781C15.3156 32.1492 14.8852 30.9711 15.3496 30.2574C16.2785 28.8527 18.6574 28.5242 20.2773 28.6148C22.407 28.7281 23.993 32.3078 25.1938 34.177C26.5871 36.3406 27.7879 38.391 28.9207 40.702C29.623 42.1293 30.552 43.4207 31.243 44.848C31.8434 46.0941 32.0813 47.2609 32.7496 48.473Z" fill="#E9F8FB"/>
<path d="M19.7789 28.6035C19.9602 28.6035 20.1301 28.6035 20.2887 28.6148C22.4184 28.7281 24.0043 32.3078 25.2051 34.177C26.5984 36.3406 27.7992 38.391 28.932 40.702C29.6344 42.1293 30.5633 43.4207 31.2543 44.848C31.8434 46.0941 32.0812 47.2609 32.7496 48.4844C39.3652 60.4922 46.0941 72.8625 50.5234 85.8785C51.0898 87.4984 52.8117 90.8402 51.4863 92.2902C50.4895 93.3777 48.5863 94.2273 47.193 94.6691C46.9437 94.7484 46.7398 94.7824 46.5699 94.7824C45.9695 94.7824 45.777 94.3293 45.2785 93.6949C41.0871 88.5293 38.7195 82.0496 35.7855 76.125C32.6703 69.8605 29.6684 63.5281 26.4512 57.3203C22.3617 49.4586 18.2723 41.4836 15.5988 33.0781C15.3156 32.1492 14.8852 30.9711 15.3496 30.2574C16.1879 29 18.2156 28.6035 19.7789 28.6035ZM19.7789 21.784C15.3383 21.784 11.6566 23.5059 9.67422 26.4965C7.44257 29.8836 8.57539 33.4293 9.05117 34.9473L9.10781 35.1172C11.8719 43.7945 15.8594 51.7355 20.4019 60.4695C22.509 64.525 24.5707 68.7391 26.5644 72.8172C27.5953 74.9355 28.6375 77.0426 29.6797 79.1496C30.382 80.5656 31.0391 82.0156 31.7187 83.4883C33.9617 88.382 36.284 93.4344 39.9769 97.9769L40.0676 98.1016C41.7894 100.424 43.9758 101.591 46.5699 101.591C47.4535 101.591 48.3145 101.455 49.2434 101.16C51.0332 100.582 54.3297 99.2797 56.5273 96.8781C60.4922 92.5055 58.2039 86.7734 57.2297 84.3266L56.9578 83.6356C52.2453 69.7813 45.0633 56.7199 38.7195 45.1879C38.5836 44.9613 38.459 44.5648 38.2891 44.123C38.0738 43.5227 37.802 42.775 37.4055 41.9367C36.8957 40.8719 36.3746 39.9996 35.9215 39.2406C35.5816 38.6742 35.2645 38.1418 35.0492 37.7C33.8937 35.3438 32.6363 33.1121 30.9258 30.484C30.7445 30.2008 30.552 29.8609 30.348 29.4984C28.8414 26.9156 26.0547 22.1012 20.6625 21.8066C20.3793 21.7953 20.0848 21.784 19.7789 21.784Z" fill="#232323"/>
<path d="M75.8305 58.3965C71.4125 71.3785 66.9266 84.7117 64.8309 98.3168C64.5703 100.016 63.4375 103.584 65.0008 104.808C66.1676 105.703 68.1953 106.201 69.634 106.405C70.8234 106.575 70.8574 106.02 71.3559 105.114C74.5844 99.2797 75.7965 92.5055 77.6543 86.1617C79.6254 79.4441 81.4832 72.7039 83.5789 66.0203C86.241 57.5582 88.8805 48.9941 90.0473 40.2602C90.1719 39.2859 90.3871 38.0625 89.798 37.4281C88.6426 36.2047 86.2297 36.3066 84.6551 36.6691C82.5707 37.1562 81.6418 40.9512 80.7809 43.0129C79.784 45.3805 78.957 47.6121 78.2434 50.0816C77.8129 51.5996 77.1105 53.027 76.6914 54.5562C76.3176 55.8816 76.2836 57.0711 75.8305 58.3965Z" fill="#E9F8FB"/>
<path d="M86.7508 36.4199C87.9176 36.4199 89.0957 36.6805 89.798 37.4168C90.3758 38.0398 90.1605 39.2746 90.0473 40.2488C88.8805 48.9828 86.241 57.5582 83.5789 66.009C81.4832 72.6812 79.6254 79.4215 77.6543 86.1504C75.7965 92.4828 74.5957 99.2684 71.3559 105.102C70.9141 105.907 70.8348 106.416 70.0078 106.416C69.8945 106.416 69.7699 106.405 69.634 106.394C68.1953 106.201 66.1676 105.703 65.0008 104.796C63.4375 103.584 64.5703 100.005 64.8309 98.3055C66.9266 84.7117 71.4125 71.3672 75.8305 58.3852C76.2723 57.0598 76.3176 55.8816 76.6914 54.5449C77.1105 53.0156 77.8129 51.5883 78.2434 50.0703C78.957 47.5895 79.784 45.3578 80.7809 43.0016C81.6418 40.9512 82.5707 37.1449 84.6551 36.6578C85.2668 36.5219 86.0031 36.4199 86.7508 36.4199ZM86.7508 29.6004C85.5613 29.6004 84.3039 29.7477 83.1145 30.0195C77.8469 31.2543 75.9211 36.4766 74.9016 39.2859C74.7543 39.6711 74.6297 40.0449 74.4938 40.3508C73.2816 43.2281 72.4207 45.641 71.6844 48.1785C71.5484 48.6543 71.3445 49.2207 71.1066 49.8211C70.7781 50.6707 70.4156 51.6336 70.1211 52.7324C69.8719 53.616 69.7359 54.409 69.6227 55.0434C69.532 55.5418 69.4641 55.9383 69.3734 56.1875C65.1367 68.6258 60.3336 82.7406 58.0906 97.252C58.068 97.4332 58.0113 97.6824 57.9434 97.9543C57.4223 100.526 56.1762 106.552 60.7867 110.155C63.3922 112.16 66.8586 112.873 68.7051 113.123C69.1922 113.191 69.6227 113.213 70.0078 113.213C71.8203 113.213 75.1961 112.602 77.2465 108.535L77.3258 108.365C80.1578 103.256 81.5738 97.8863 82.9332 92.6867C83.341 91.1234 83.7375 89.5715 84.1906 88.0422C84.825 85.8445 85.4707 83.6355 86.1051 81.4266C87.3738 77.0086 88.6879 72.4547 90.0699 68.0367C93.0379 58.623 95.5867 50.1043 96.7988 41.1324L96.8328 40.8832C97.0254 39.3312 97.5012 35.6836 94.7824 32.7609C93.4117 31.3109 90.9195 29.6004 86.7508 29.6004Z" fill="#232323"/>
<path d="M104.434 91.6785C111.945 80.2031 119.591 68.3879 125.006 55.7457C125.686 54.1711 127.668 50.9766 126.456 49.4246C125.55 48.2691 123.714 47.2723 122.366 46.7285C121.256 46.2754 121.086 46.7852 120.361 47.5441C115.785 52.3926 112.941 58.657 109.566 64.3438C105.986 70.3477 102.52 76.4195 98.8266 82.3781C94.1367 89.9113 89.4695 97.5465 86.1617 105.725C85.7992 106.632 85.2781 107.764 85.7086 108.523C86.5129 109.985 88.8805 110.495 90.4891 110.529C92.6301 110.574 94.4766 107.13 95.8246 105.352C97.3765 103.312 98.7359 101.353 100.039 99.1324C100.843 97.7617 101.874 96.5609 102.655 95.1789C103.335 93.9894 103.675 92.8566 104.434 91.6785Z" fill="#E9F8FB"/>
<path d="M121.675 46.5586C121.868 46.5586 122.083 46.6152 122.378 46.7285C123.726 47.2723 125.561 48.2578 126.467 49.4246C127.679 50.9879 125.708 54.1711 125.017 55.7457C119.602 68.3879 111.956 80.2031 104.445 91.6785C103.686 92.8453 103.346 93.9894 102.655 95.1902C101.874 96.5609 100.843 97.773 100.039 99.1437C98.7359 101.364 97.3879 103.324 95.8246 105.363C94.4879 107.119 92.6527 110.54 90.5344 110.54H90.4891C88.8805 110.506 86.5242 109.996 85.7086 108.535C85.2895 107.776 85.7992 106.643 86.1617 105.737C89.4695 97.5578 94.1367 89.9227 98.8265 82.3895C102.508 76.4422 105.986 70.3703 109.566 64.3551C112.941 58.6684 115.796 52.4039 120.361 47.5555C120.905 46.9891 121.132 46.5586 121.675 46.5586ZM121.675 39.7504C118.152 39.7504 116.17 42.0047 115.536 42.741L115.4 42.8883C111.412 47.125 108.716 51.9734 106.099 56.6633C105.306 58.0793 104.525 59.4953 103.709 60.866C102.497 62.9051 101.285 64.9555 100.084 67.0172C97.7957 70.9027 95.4281 74.9129 93.0379 78.7871C87.8609 87.1019 83.2844 94.6805 79.8406 103.165L79.75 103.403C79.1723 104.864 77.8016 108.286 79.716 111.797C81.6078 115.196 85.5613 117.246 90.3418 117.348H90.523C95.8019 117.348 98.8039 113.009 100.582 110.415C100.82 110.075 101.036 109.747 101.239 109.475C103.063 107.085 104.536 104.898 105.907 102.599C106.156 102.168 106.507 101.67 106.881 101.149C107.402 100.401 107.991 99.5629 108.557 98.5773C109.033 97.773 109.362 97.048 109.622 96.459C109.837 95.9945 109.996 95.6207 110.155 95.3941C117.337 84.4285 125.482 71.9676 131.27 58.4305C131.35 58.2719 131.452 58.0453 131.576 57.7961C132.732 55.4285 135.45 49.8777 131.825 45.2332C129.809 42.6504 126.637 41.0984 124.927 40.4074C123.828 39.9656 122.752 39.7504 121.675 39.7504Z" fill="#232323"/>
<path d="M95.4734 90.9988C100.684 78.3113 105.963 65.2727 108.897 51.8375C109.271 50.1609 110.608 46.6492 109.124 45.3578C108.014 44.3836 106.02 43.7605 104.593 43.4887C103.414 43.2508 103.346 43.7945 102.791 44.6668C99.2004 50.2855 97.5918 56.9805 95.3488 63.1996C92.9699 69.7812 90.7043 76.3969 88.2008 82.9332C85.0289 91.2141 81.891 99.6082 80.1805 108.252C79.9879 109.226 79.7047 110.427 80.2484 111.095C81.3359 112.375 83.7375 112.432 85.3234 112.16C87.4418 111.809 88.5973 108.07 89.5941 106.065C90.7269 103.766 91.6898 101.591 92.5508 99.1664C93.0832 97.6711 93.8648 96.2891 94.3746 94.7937C94.8277 93.4797 94.9523 92.3016 95.4734 90.9988Z" fill="#E9F8FB"/>
<path d="M104.117 43.4207C104.253 43.4207 104.411 43.4434 104.604 43.4773C106.02 43.7605 108.025 44.3836 109.135 45.3465C110.619 46.6492 109.282 50.1496 108.909 51.8262C105.975 65.2613 100.684 78.3 95.4848 90.9875C94.9637 92.2789 94.8504 93.4684 94.3973 94.7711C93.8875 96.2664 93.1059 97.6598 92.5734 99.1438C91.7125 101.568 90.7496 103.743 89.6168 106.043C88.6199 108.036 87.4645 111.775 85.3461 112.137C84.8816 112.216 84.3379 112.262 83.7715 112.262C82.4461 112.262 81.0301 111.967 80.2711 111.061C79.7273 110.404 80.0105 109.192 80.2031 108.218C81.9137 99.5742 85.0516 91.1801 88.2234 82.8992C90.727 76.3629 92.9926 69.7473 95.3715 63.1656C97.6145 56.9578 99.2231 50.2629 102.814 44.6328C103.267 43.9305 103.38 43.4207 104.117 43.4207ZM104.117 36.6125C102.066 36.6125 99.1891 37.3488 97.1387 40.8379L97.048 41.0078C93.9102 45.9242 92.177 51.2031 90.5004 56.3008C89.9906 57.8414 89.4809 59.3707 88.9484 60.8773C88.1668 63.041 87.3852 65.216 86.6262 67.3797C85.0855 71.707 83.5109 76.1703 81.8344 80.4977C78.3227 89.6734 75.2641 97.9996 73.4855 106.926L73.4516 107.13C73.1457 108.682 72.432 112.318 74.9922 115.411C76.9973 117.813 80.1012 119.093 83.7602 119.093C84.6777 119.093 85.584 119.013 86.4789 118.866C91.8031 117.982 94.0348 112.862 95.2355 110.121C95.4055 109.747 95.5527 109.396 95.7 109.09C97.0254 106.405 98.0789 103.97 98.9738 101.455C99.1438 100.99 99.393 100.435 99.6535 99.8461C100.027 99.0191 100.458 98.0676 100.832 96.9914C101.126 96.1305 101.33 95.3262 101.477 94.6918C101.591 94.2047 101.693 93.8082 101.795 93.559C106.779 81.4379 112.432 67.6516 115.558 53.2988C115.604 53.1176 115.671 52.8797 115.739 52.6078C116.43 50.0703 118.039 44.123 113.621 40.2375C111.152 38.0852 107.73 37.1562 105.918 36.7937C105.318 36.6691 104.717 36.6125 104.117 36.6125Z" fill="#232323"/>
<path d="M58.4984 60.5941C59.1441 74.2898 59.8805 88.348 62.9164 101.772C63.2902 103.448 63.5508 107.187 65.4539 107.742C66.8699 108.161 68.9316 107.878 70.3477 107.527C71.5145 107.243 71.3445 106.722 71.4918 105.691C72.3527 99.0871 70.982 92.3355 70.3816 85.7539C69.7699 78.7871 69.0109 71.8316 68.5012 64.8422C67.8895 55.9949 67.1758 47.0684 65.0688 38.5043C64.8309 37.5414 64.5816 36.3293 63.8 35.9555C62.282 35.2531 60.073 36.2273 58.7477 37.1336C56.9805 38.357 57.5129 42.2313 57.4563 44.4629C57.3996 47.0344 57.4562 49.4133 57.6941 51.9734C57.8414 53.548 57.7281 55.134 57.898 56.7086C58.0227 58.0793 58.4305 59.2121 58.4984 60.5941Z" fill="#E9F8FB"/>
<path d="M62.5992 35.7176C63.0297 35.7176 63.4262 35.7855 63.7887 35.9555C64.559 36.3293 64.8082 37.5414 65.0574 38.5043C67.1758 47.0684 67.8781 55.9949 68.4898 64.8422C68.9996 71.8316 69.7586 78.7871 70.3703 85.7539C70.982 92.3355 72.3414 99.0871 71.4805 105.691C71.3445 106.722 71.5031 107.243 70.3363 107.527C69.4301 107.753 68.2293 107.957 67.1305 107.957C66.5187 107.957 65.941 107.889 65.4426 107.753C63.5508 107.198 63.2789 103.46 62.9051 101.783C59.8691 88.3594 59.1441 74.3125 58.4871 60.6055C58.4191 59.2121 58.0227 58.0906 57.8754 56.7199C57.7055 55.1453 57.8187 53.5594 57.6715 51.9848C57.4336 49.4246 57.3769 47.0457 57.4336 44.4742C57.4902 42.2426 56.9578 38.3684 58.725 37.1449C59.7445 36.4539 61.2625 35.7176 62.5992 35.7176ZM62.5992 28.9094C59.1894 28.9094 56.3008 30.552 54.8734 31.5375C50.4215 34.6187 50.5574 40.1922 50.6254 43.1828C50.6367 43.5906 50.648 43.9871 50.6367 44.327C50.5687 47.3516 50.6594 49.991 50.8973 52.6191C50.9426 53.1176 50.9539 53.718 50.9539 54.3637C50.9652 55.2812 50.9879 56.3234 51.1125 57.4676C51.2031 58.3625 51.3617 59.1555 51.4863 59.7898C51.5883 60.2883 51.6676 60.6848 51.6902 60.9566C52.3019 74.0633 53.0156 88.9371 56.2555 103.278C56.3008 103.46 56.3461 103.72 56.3801 103.992C56.8332 106.575 57.8867 112.636 63.5281 114.289C64.6043 114.607 65.8164 114.765 67.1191 114.765C69.0449 114.765 70.8121 114.425 71.9562 114.142C74.052 113.644 77.7109 111.99 78.1867 106.779L78.2094 106.586C78.9684 100.786 78.3 95.2695 77.6656 89.934C77.4617 88.3254 77.2805 86.7281 77.1332 85.1422C76.918 82.7519 76.6914 80.3504 76.4535 77.9375C76.023 73.4855 75.5812 68.875 75.2641 64.3664C74.573 54.5789 73.8254 45.743 71.6391 36.8844L71.5937 36.6918C71.2199 35.1625 70.325 31.5828 66.734 29.8496C65.4086 29.1926 64.0492 28.9094 62.5992 28.9094Z" fill="#232323"/>
<path d="M52.8117 86.6715C51.407 73.0211 49.9117 59.0422 46.1508 45.7996C45.6977 44.1457 45.2219 40.4301 43.2961 39.9769C41.8574 39.6371 39.807 40.0336 38.425 40.4641C37.2809 40.8152 37.4621 41.325 37.3828 42.3559C36.8844 49.0055 38.6176 55.6664 39.5918 62.2027C40.5887 69.1355 41.7215 76.0344 42.6051 82.9785C43.7152 91.7691 44.916 100.65 47.4988 109.079C47.782 110.019 48.1105 111.22 48.8922 111.548C50.4555 112.171 52.5965 111.084 53.8652 110.087C55.5645 108.773 54.8281 104.932 54.7602 102.712C54.6695 100.141 54.4883 97.773 54.1145 95.2242C53.8652 93.6609 53.9105 92.075 53.65 90.5117C53.4008 89.1523 52.959 88.0648 52.8117 86.6715Z" fill="#E9F8FB"/>
<path d="M42.05 39.8637C42.4918 39.8637 42.9109 39.8977 43.2848 39.9883C45.2106 40.4414 45.6863 44.157 46.1395 45.8109C49.9117 59.0422 51.3957 73.0324 52.8004 86.6828C52.959 88.0648 53.4008 89.1637 53.6273 90.523C53.8879 92.0863 53.8426 93.6836 54.0918 95.2355C54.4656 97.7844 54.6582 100.152 54.7375 102.723C54.8055 104.955 55.5418 108.795 53.8426 110.098C52.8344 110.891 51.2598 111.741 49.8777 111.741C49.5266 111.741 49.1867 111.684 48.8695 111.559C48.0879 111.231 47.7594 110.03 47.4762 109.09C44.8934 100.662 43.6926 91.7805 42.5824 82.9898C41.6988 76.0457 40.566 69.1355 39.5691 62.2141C38.5949 55.6777 36.8617 49.0055 37.3602 42.3672C37.4395 41.3363 37.2582 40.8266 38.4023 40.4754C39.4332 40.1582 40.8152 39.8637 42.05 39.8637ZM42.05 33.0441C39.7277 33.0441 37.5188 33.6219 36.4086 33.9617C34.3242 34.5961 30.8012 36.4426 30.5859 41.6535L30.5746 41.8461C30.1441 47.7027 31.107 53.1969 32.0473 58.5098C32.3305 60.0844 32.6137 61.659 32.8516 63.2223C33.2027 65.6352 33.5652 68.0933 33.9391 70.5289C34.5961 74.9016 35.2871 79.4328 35.8422 83.8508C37.077 93.593 38.3004 102.384 40.9738 111.106L41.0305 111.287C41.4836 112.794 42.5711 116.34 46.2867 117.88C47.4648 118.356 48.6656 118.583 49.9004 118.583C53.5594 118.583 56.5727 116.657 58.0566 115.502C62.3047 112.205 61.8742 106.654 61.6363 103.675C61.6023 103.267 61.5684 102.871 61.5684 102.542C61.4664 99.5402 61.2398 96.9121 60.8434 94.2613C60.7527 93.7516 60.7301 93.1512 60.6734 92.5055C60.6168 91.5992 60.5488 90.5684 60.3676 89.4469C60.2203 88.5293 60.0164 87.7476 59.8578 87.1359C59.7219 86.6375 59.6199 86.241 59.5973 85.9691C58.2606 72.9305 56.7426 58.102 52.7098 43.9758C52.6645 43.8059 52.6078 43.5566 52.5512 43.2848C51.9621 40.7246 50.5688 34.7094 44.8481 33.3727C43.9758 33.1461 43.0356 33.0441 42.05 33.0441Z" fill="#232323"/>
<path d="M128.2 69.9285C127.102 68.6938 125.402 68.1953 123.805 68.0254C121.789 67.8102 119.772 67.6062 117.756 67.4137C115.411 67.1984 113.032 66.9719 110.687 66.9152C110.347 66.9152 110.019 66.9039 109.69 66.9039C107.549 66.9039 104.468 66.4961 103.335 68.977C102.746 70.291 102.361 71.809 101.908 73.1797C99.3363 80.9848 90.0926 81.3133 83.2164 81.1207C74.2898 80.8602 64.2984 82.616 55.6324 80.3617C51.7469 79.3422 47.9406 77.2012 46.6152 73.1797C45.9355 71.152 45.5164 68.0367 43.2734 67.1758C41.5516 66.5188 39.6145 66.8699 37.8246 66.9152C35.4684 66.9719 33.1008 67.1984 30.7559 67.4137C28.7395 67.6062 26.723 67.8102 24.7066 68.0254C23.1094 68.1953 21.4102 68.6938 20.3113 69.9285C19.0199 71.3898 20.1188 73.2703 20.3793 74.9582C21.5121 82.2309 24.1176 89.5035 25.7602 96.7082C27.7086 105.204 29.6684 113.689 31.934 122.106C33.0781 126.297 34.3016 130.466 35.6156 134.612C36.2613 136.651 37.2242 142.689 39.0367 144.116C40.6793 145.408 43.4773 143.629 45.2105 143.414C47.3629 143.142 49.5492 142.825 51.7016 142.598C68.9203 140.729 86.1164 141.182 103.267 143.414C105 143.641 107.798 145.408 109.441 144.116C111.254 142.689 112.216 136.651 112.862 134.612C114.187 130.477 115.411 126.309 116.544 122.106C118.821 113.689 120.78 105.204 122.718 96.7082C124.36 89.5035 126.977 82.2309 128.121 74.9582C128.404 73.2703 129.503 71.3898 128.2 69.9285Z" fill="#232323"/>
</svg>
